<svg width="1200" height="630" viewBox="0 0 1200 630" fill="none" xmlns="http://www.w3.org/2000/svg">
  <rect width="1200" height="630" fill="#1E2A45"/>
  <circle cx="1000" cy="100" r="150" fill="#00FFDC" opacity="0.1"/>
  <g transform="translate(100, 80)">
    <svg width="300" height="90" viewBox="0 0 500 150" fill="none" xmlns="http://www.w3.org/2000/svg">
      <path d="M445.881 99.872C441.657 99.872 438.009 99.2 434.937 97.856C431.929 96.512 429.465 94.688 427.545 92.384C425.689 90.08 424.313 87.488 423.417 84.608C422.585 81.664 422.169 78.624 422.169 75.488C422.169 72.48 422.585 69.504 423.417 66.56C424.313 63.616 425.657 60.96 427.449 58.592C429.241 56.16 431.609 54.24 434.553 52.832C437.497 51.36 441.017 50.624 445.113 50.624C448.761 50.624 451.961 51.264 454.713 52.544C457.529 53.76 459.865 55.488 461.721 57.728C463.577 59.904 464.953 62.496 465.849 65.504C466.809 68.512 467.289 71.744 467.289 75.2C467.289 75.776 467.257 76.448 467.193 77.216C467.193 77.984 467.129 78.848 467.001 79.808H435.321C435.705 82.752 436.953 84.96 439.065 86.432C441.177 87.84 443.705 88.544 446.649 88.544C449.017 88.544 451.385 88.128 453.753 87.296C456.121 86.464 458.201 85.28 459.993 83.744L466.041 92.96C463.673 94.624 461.465 95.968 459.417 96.992C457.433 98.016 455.353 98.752 453.177 99.2C451.065 99.648 448.633 99.872 445.881 99.872ZM454.329 73.184C454.457 72.672 454.553 72.16 454.617 71.648C454.745 71.136 454.809 70.656 454.809 70.208C454.809 68.928 454.553 67.776 454.041 66.752C453.593 65.664 452.953 64.736 452.121 63.968C451.289 63.2 450.297 62.624 449.145 62.24C447.993 61.792 446.713 61.568 445.305 61.568C443.065 61.568 441.209 62.016 439.737 62.912C438.329 63.744 437.241 64.8 436.473 66.08C435.769 67.36 435.321 68.672 435.129 70.016H458.745L454.329 73.184Z" fill="#00FFDC"/>
      <path d="M347.802 98.912V51.584H360.954V63.968L358.074 66.656C358.522 63.392 359.29 60.704 360.378 58.592C361.53 56.48 362.874 54.848 364.41 53.696C365.946 52.544 367.546 51.744 369.21 51.296C370.874 50.848 372.506 50.624 374.106 50.624C376.41 50.624 378.682 51.072 380.922 51.968C383.226 52.8 385.242 54.336 386.97 56.576C388.698 58.816 389.914 61.984 390.618 66.08L382.65 69.344C383.61 64.48 385.082 60.704 387.066 58.016C389.05 55.264 391.258 53.344 393.69 52.256C396.186 51.168 398.682 50.624 401.178 50.624C405.274 50.624 408.602 51.52 411.162 53.312C413.722 55.04 415.61 57.312 416.826 60.128C418.042 62.88 418.65 65.76 418.65 68.768V98.912H405.402V71.936C405.402 69.696 405.114 67.84 404.538 66.368C403.962 64.896 403.13 63.808 402.042 63.104C400.954 62.4 399.61 62.048 398.01 62.048C396.154 62.048 394.618 62.528 393.402 63.488C392.186 64.448 391.258 65.92 390.618 67.904C390.042 69.888 389.754 72.416 389.754 75.488V98.912H376.602V71.84C376.602 68.576 375.994 66.144 374.778 64.544C373.562 62.88 371.834 62.048 369.594 62.048C367.674 62.048 366.074 62.56 364.794 63.584C363.514 64.544 362.554 66.016 361.914 68C361.274 69.92 360.954 72.416 360.954 75.488V98.912H347.802Z" fill="#00FFDC"/>
      <path d="M328.58 98.912V85.76H342.404V98.912H328.58Z" fill="#F0F2F9"/>
      <path d="M305.667 99.872C302.083 99.872 298.947 99.36 296.259 98.336C293.571 97.312 291.331 96.064 289.539 94.592C287.747 93.056 286.275 91.648 285.123 90.368L294.147 82.496C295.235 84.096 296.707 85.632 298.563 87.104C300.483 88.576 302.883 89.312 305.763 89.312C307.875 89.312 309.507 88.896 310.659 88.064C311.875 87.232 312.483 86.272 312.483 85.184C312.483 84.16 312.099 83.36 311.331 82.784C310.563 82.144 309.539 81.6 308.259 81.152C306.979 80.704 305.539 80.256 303.939 79.808C302.147 79.36 300.291 78.816 298.371 78.176C296.451 77.472 294.659 76.576 292.995 75.488C291.331 74.4 289.987 73.024 288.963 71.36C287.939 69.632 287.427 67.488 287.427 64.928C287.427 60.64 289.091 57.184 292.419 54.56C295.811 51.936 300.227 50.624 305.667 50.624C309.507 50.624 312.995 51.36 316.131 52.832C319.267 54.304 321.763 56.448 323.619 59.264L315.459 65.696C314.307 64.032 312.835 62.752 311.043 61.856C309.251 60.896 307.363 60.416 305.379 60.416C303.715 60.416 302.339 60.736 301.251 61.376C300.227 61.952 299.715 62.72 299.715 63.68C299.715 64.384 299.971 64.992 300.483 65.504C300.995 65.952 301.827 66.368 302.979 66.752C304.131 67.136 305.699 67.584 307.683 68.096C309.539 68.544 311.491 69.088 313.539 69.728C315.587 70.368 317.507 71.264 319.299 72.416C321.155 73.504 322.627 74.976 323.715 76.832C324.867 78.624 325.443 80.896 325.443 83.648C325.443 86.848 324.611 89.696 322.947 92.192C321.347 94.624 319.043 96.512 316.035 97.856C313.091 99.2 309.635 99.872 305.667 99.872Z" fill="#F0F2F9"/>
      <path d="M271.074 98.912L258.114 78.176L251.394 85.952V69.536L268.194 51.584H284.994L267.81 69.344L286.818 98.912H271.074ZM239.202 98.912V32H252.354V98.912H239.202Z" fill="#F0F2F9"/>
      <path d="M213.475 99.872C209.251 99.872 205.603 99.2 202.531 97.856C199.523 96.512 197.059 94.688 195.139 92.384C193.283 90.08 191.907 87.488 191.011 84.608C190.179 81.664 189.763 78.624 189.763 75.488C189.763 72.48 190.179 69.504 191.011 66.56C191.907 63.616 193.251 60.96 195.043 58.592C196.835 56.16 199.203 54.24 202.147 52.832C205.091 51.36 208.611 50.624 212.707 50.624C216.355 50.624 219.555 51.264 222.307 52.544C225.123 53.76 227.459 55.488 229.315 57.728C231.171 59.904 232.547 62.496 233.443 65.504C234.403 68.512 234.883 71.744 234.883 75.2C234.883 75.776 234.851 76.448 234.787 77.216C234.787 77.984 234.723 78.848 234.595 79.808H202.915C203.299 82.752 204.547 84.96 206.659 86.432C208.771 87.84 211.299 88.544 214.243 88.544C216.611 88.544 218.979 88.128 221.347 87.296C223.715 86.464 225.795 85.28 227.587 83.744L233.635 92.96C231.267 94.624 229.059 95.968 227.011 96.992C225.027 98.016 222.947 98.752 220.771 99.2C218.659 99.648 216.227 99.872 213.475 99.872ZM221.923 73.184C222.051 72.672 222.147 72.16 222.211 71.648C222.339 71.136 222.403 70.656 222.403 70.208C222.403 68.928 222.147 67.776 221.635 66.752C221.187 65.664 220.547 64.736 219.715 63.968C218.883 63.2 217.891 62.624 216.739 62.24C215.587 61.792 214.307 61.568 212.899 61.568C210.659 61.568 208.803 62.016 207.331 62.912C205.923 63.744 204.835 64.8 204.067 66.08C203.363 67.36 202.915 68.672 202.723 70.016H226.339L221.923 73.184Z" fill="#F0F2F9"/>
      <path d="M172.488 98.912V51.584H185.64V98.912H172.488ZM172.296 44.672V32H186.024V44.672H172.296Z" fill="#F0F2F9"/>
      <path d="M154.599 98.912L141.639 78.176L134.919 85.952V69.536L151.719 51.584H168.519L151.335 69.344L170.343 98.912H154.599ZM122.727 98.912L126 51.584L124 36.912L135.879 32V98.912H122.727Z" fill="#F0F2F9"/>
      <path d="M43.9425 55.8182C35.6203 56.9888 29.8219 64.6905 30.9915 73.0204L35.933 108.213C37.1026 116.543 44.7973 122.347 53.1196 121.176L87.0244 116.406C91.5323 115.772 94.6731 111.601 94.0396 107.089C93.406 102.577 89.2381 99.4329 84.7302 100.067C89.2381 99.4329 92.3789 95.2612 91.7453 90.7492C91.1118 86.2372 86.9438 83.0935 82.4359 83.7276C86.9438 83.0935 90.0846 78.9218 89.451 74.4098C88.8175 69.8977 84.6495 66.7541 80.1416 67.3882L117.081 62.192C121.589 61.5579 124.73 57.3861 124.096 52.8741C123.463 48.3621 119.295 45.2184 114.787 45.8526L64.2436 52.9624C63.944 53.0046 63.6505 53.0623 63.3638 53.1348C62.9613 53.1592 62.5568 53.1997 62.1507 53.2568L43.9425 55.8182Z" fill="#00FFDC"/>
    </svg>
  </g>
  <text x="100" y="320" font-family="'Hanken Grotesk', sans-serif" font-size="72" font-weight="700" fill="#FFFFFF">Impressum</text>
  <text x="100" y="380" font-family="'Source Sans 3', sans-serif" font-size="28" font-weight="400" fill="#CCCCCC">Legal notice and company information</text>
  <text x="100" y="440" font-family="'Source Sans 3', sans-serif" font-size="24" font-weight="400" fill="#00FFDC">Thinkport GmbH • Leipzig</text>
  <rect x="100" y="460" width="200" height="4" fill="#00FFDC"/>
</svg>
