<?xml version="1.0" encoding="UTF-8"?><svg id="svg74" xmlns="http://www.w3.org/2000/svg" viewBox="0 0 1045.4 1094.9"><defs><style>.cls-1{fill:none;}.cls-2{fill:#00bcd4;}.cls-3{fill:#ff5722;}.cls-4{fill:#0b2649;}</style></defs><g><polygon class="cls-4" points="526.01 1016.5 513.89 1016.5 477.4 1053.19 477.4 1016.5 468.3 1016.5 468.3 1094.5 477.5 1094.5 477.5 1055.87 513.33 1094.34 513.48 1094.5 526.16 1094.5 488.1 1054.41 526.01 1016.5"/><polygon class="cls-4" points="386 1077.91 339.6 1016.7 339.45 1016.5 332.1 1016.5 332.1 1094.5 341 1094.5 341 1033.09 387.2 1094.3 387.35 1094.5 394.9 1094.5 394.9 1016.5 386 1016.5 386 1077.91"/><rect class="cls-4" x="249.6" y="1016.5" width="9.1" height="78"/><polygon class="cls-4" points="0 1025.6 19.4 1025.6 19.4 1094.5 28.5 1094.5 28.5 1025.6 47.4 1025.6 47.4 1016.5 0 1016.5 0 1025.6"/><polygon class="cls-4" points="167 1049.4 130 1049.4 130 1016.5 120.9 1016.5 120.9 1094.5 130 1094.5 130 1058.5 167 1058.5 167 1094.5 176.1 1094.5 176.1 1016.5 167 1016.5 167 1049.4"/><path class="cls-4" d="M912.6,1057.4c1.93-1.42,3.58-3.08,4.91-4.91,1.3-1.8,2.33-3.84,3.17-6.23,.83-2.38,1.23-4.72,1.23-7.16,0-3.09-.62-6.05-1.84-8.79-1.13-2.77-2.79-5.25-4.82-7.17-2.16-2.05-4.49-3.62-7.14-4.79-2.79-1.24-5.64-1.84-8.7-1.84h-29.2v78h9.1v-32.9h17.4l17.86,32.64,.14,.26h10.22l-18.01-34.11c2.07-.72,3.93-1.7,5.68-2.99Zm.2-18.3c0,1.75-.36,3.5-1.05,5.19-.73,1.55-1.66,2.91-2.92,4.27-1.12,1.22-2.55,2.19-4.22,2.88-1.71,.71-3.46,1.06-5.21,1.06h-20.1v-26.9h20.1c1.82,0,3.56,.39,5.21,1.16,1.77,.73,3.2,1.94,4.25,2.91,1.22,1.12,2.19,2.55,2.88,4.22,.7,1.71,1.06,3.46,1.06,5.21Z"/><polygon class="cls-4" points="998 1016.5 998 1025.6 1017.4 1025.6 1017.4 1094.5 1026.5 1094.5 1026.5 1025.6 1045.4 1025.6 1045.4 1016.5 998 1016.5"/><path class="cls-4" d="M644.04,1023.14c-2.16-2.05-4.49-3.62-7.14-4.79-2.79-1.24-5.64-1.84-8.7-1.84h-29.2v78h9.1v-32.9h20.1c2.98,0,5.82-.57,8.7-1.74,3.01-1.34,5.35-2.91,7.16-4.81,1.91-2.01,3.56-4.48,4.79-7.14,1.21-2.62,1.85-5.67,1.85-8.81s-.62-6.05-1.84-8.79c-1.13-2.77-2.8-5.25-4.82-7.17Zm-2.45,15.96c0,1.75-.36,3.5-1.05,5.19-.8,1.7-1.78,3.14-2.92,4.27-1.12,1.22-2.55,2.19-4.22,2.88-1.71,.71-3.46,1.06-5.21,1.06h-20.1v-26.9h20.1c1.82,0,3.56,.39,5.21,1.16,1.77,.73,3.2,1.94,4.25,2.91,1.22,1.12,2.19,2.55,2.88,4.22,.7,1.71,1.06,3.46,1.06,5.21Z"/><path class="cls-4" d="M787.58,1027.58c-2.96-3.55-6.71-6.4-11.47-8.73-4.62-2.15-9.97-3.25-15.91-3.25-6.27,0-11.45,1.06-15.81,3.25-4.45,2.07-8.27,5.01-11.37,8.73-3.1,3.72-5.42,7.95-6.89,12.57-1.54,4.83-2.32,9.83-2.32,14.85s.76,9.95,2.32,14.95c1.49,4.78,3.81,9.07,6.89,12.77,2.98,3.58,6.8,6.55,11.36,8.83,4.61,2.25,9.79,3.35,15.82,3.35s11.31-1.1,15.92-3.35c4.6-2.25,8.46-5.22,11.46-8.83,3.03-3.64,5.35-7.93,6.89-12.77,1.54-4.83,2.32-9.86,2.32-14.95s-.78-10.02-2.32-14.85c-1.47-4.62-3.79-8.85-6.89-12.57Zm-.08,27.62c0,4.16-.6,8.11-1.78,11.76-1.02,3.54-2.74,6.84-5.11,9.83-2.17,2.73-4.92,4.91-8.43,6.66-3.25,1.62-7.24,2.45-11.88,2.45s-8.43-.82-11.68-2.45c-3.51-1.76-6.27-3.93-8.43-6.66-2.16-2.72-3.88-6.04-5.12-9.84-1.16-3.58-1.78-7.65-1.78-11.75,0-3.72,.6-7.68,1.78-11.76,1.04-3.59,2.76-6.86,5.11-9.72,2.17-2.65,5.01-4.86,8.44-6.57,3.25-1.62,7.18-2.45,11.68-2.45s8.63,.82,11.88,2.45c3.33,1.67,6.17,3.91,8.44,6.67,2.26,2.75,3.93,5.9,5.11,9.63,1.2,3.79,1.78,7.63,1.78,11.75Z"/></g><polygon class="cls-1" points="522.4 224.8 477.8 224.8 471.4 318.3 522.4 318.3 522.4 224.8"/><path class="cls-1" d="M518.9,709.6c4.5-70.3,17.3-94,17.3-136.7s-20.3-62.8-20.3-96.8c0-25,9-39.8,11.8-71.4,.8-8.7-1-23.3-5.3-44h-64.8l-31.3,442.5c22.7-8.8,52.8-17.5,90.5-22.5-.4-20,.4-43.7,2.1-71.1Z"/><path class="cls-2" d="M433.9,696.4l.1-1.3-.1,1.3h0Z"/><path class="cls-3" d="M442.2,188h21.9c54.2-87.7,101.9,0,101.9,0h19.4v34.1l212.5-54.4C737.8,67.2,628,0,502.6,0c-114.7,0-216.3,56.2-278.9,142.7L26.8,108l-7.3,41.4,422.7,74.4v-35.8Z"/><g><path class="cls-2" d="M603.6,317.5v42.5h-11.5l23.34,327.09c124.38-40.81,217.67-150.3,235.16-283.59l168.4,29.7,7.3-41.4-422.7-74.3Z"/><path class="cls-2" d="M414.15,691.4l25.15-333.1h-11.7v-39.5l-266.1,38.9c0,158.9,106.8,292.8,252.5,333.7h.15Z"/></g><path class="cls-4" d="M728.2,833.6c-.5-2.7-10.8-6-16.4-5.9-25.4,.6-45.4-6.2-60.8-22.8-7.1-7.6-15-15-28.1-13.2l-30.8-431.7h11.5v-42.5h-25.3l-5.9-95.4h13v-34.1h-19.4s-47.7-87.7-101.9,0h-21.9v35.8h15.3l-8,95h-21.9v39.5h11.7l-34.3,454.3c-3.5,1.7-6.7,3.3-9.6,4.9h-.1c-7.6,3.6-23.2,12.9-40.1,23.2-13.4,7.6-26.3,16-39.7,24.7-7.69,4.85-14.09,8.93-18.13,11.51l.96,2.94c77.52-1.1,140.93-30.63,209.57-46.15-24.7,13.7-49.3,27.3-77.9,43.2,7.3-.8,9.4-.7,11.3-1.2,50.7-12.6,102.8-21.2,155.4-19.3,31.9,1.1,63,8.7,94,15.5,31.3,6.9,62.6,10.6,94.5,14.2,.9-1.8,1.7-3.7,2.6-5.5-33.8-5.3-54.2-20.1-59.6-47ZM477.8,224.8h44.6v93.5h-51l6.4-93.5Zm41.1,484.8c-1.8,27.4-2.5,51.1-2.2,71.2-37.7,5-67.8,13.7-90.5,22.5l31.3-442.5h64.8c4.3,20.7,6.1,35.3,5.3,44-2.8,31.6-11.8,46.4-11.8,71.4,0,34.1,20.3,54.1,20.3,96.8s-12.6,66.3-17.2,136.6Z"/></svg>