<svg width="1200" height="200" viewBox="0 0 1200 200" fill="none" xmlns="http://www.w3.org/2000/svg">
  <defs>
    <style>
  @keyframes rotate1 { from { transform: rotate(0deg); } to { transform: rotate(360deg); } }
  @keyframes rotate2 { from { transform: rotate(0deg); } to { transform: rotate(-360deg); } }
  @keyframes colorShift {
    0% { fill-opacity: 0.2; }
    25% { fill-opacity: 0.8; }
    50% { fill-opacity: 0.2; }
    75% { fill-opacity: 0.8; }
    100% { fill-opacity: 0.2; }
  }
  @keyframes zoom {
    0% { transform: scale(1); }
    50% { transform: scale(1.2); }
    100% { transform: scale(1); }
  }
  /* Gruppe 1 - Startet sofort */
  .polygon-1 { animation: rotate1 270s linear infinite, colorShift 36s ease-in-out infinite, zoom 54s ease-in-out infinite; transform-origin: center; }
  .polygon-2 { animation: rotate2 270s linear infinite, colorShift 36s ease-in-out infinite, zoom 54s ease-in-out infinite; transform-origin: center; animation-delay: 3s; }
  .polygon-3 { animation: rotate1 270s linear infinite, colorShift 36s ease-in-out infinite, zoom 54s ease-in-out infinite; transform-origin: center; animation-delay: 6s; }
  
  /* Gruppe 2 - Startet nach 2s */
  .polygon-4 { animation: rotate2 270s linear infinite, colorShift 36s ease-in-out infinite, zoom 54s ease-in-out infinite; transform-origin: center; animation-delay: 9s; }
  .polygon-5 { animation: rotate1 270s linear infinite, colorShift 36s ease-in-out infinite, zoom 54s ease-in-out infinite; transform-origin: center; animation-delay: 12s; }
  .polygon-6 { animation: rotate2 270s linear infinite, colorShift 36s ease-in-out infinite, zoom 54s ease-in-out infinite; transform-origin: center; animation-delay: 15s; }
  
  /* Gruppe 3 - Startet nach 4s */
  .polygon-7 { animation: rotate1 270s linear infinite, colorShift 36s ease-in-out infinite, zoom 54s ease-in-out infinite; transform-origin: center; animation-delay: 18s; }
  .polygon-8 { animation: rotate2 270s linear infinite, colorShift 36s ease-in-out infinite, zoom 54s ease-in-out infinite; transform-origin: center; animation-delay: 21s; }
  .polygon-9 { animation: rotate1 270s linear infinite, colorShift 36s ease-in-out infinite, zoom 54s ease-in-out infinite; transform-origin: center; animation-delay: 24s; }
  
  /* Gruppe 4 - Startet nach 6s */
  .polygon-10 { animation: rotate2 270s linear infinite, colorShift 36s ease-in-out infinite, zoom 54s ease-in-out infinite; transform-origin: center; animation-delay: 27s; }
  .polygon-11 { animation: rotate1 270s linear infinite, colorShift 36s ease-in-out infinite, zoom 54s ease-in-out infinite; transform-origin: center; animation-delay: 30s; }
  .polygon-12 { animation: rotate2 270s linear infinite, colorShift 36s ease-in-out infinite, zoom 54s ease-in-out infinite; transform-origin: center; animation-delay: 33s; }
</style>
    <style>
      @font-face {
        font-family: HankenGrotesk;
        src: url("../../assets/fonts/hanken-grotesk/500/regular.ttf") format("truetype");
        font-weight: 500 700;
      }
      @font-face {
        font-family: SourceSans3;
        src: url("../../assets/fonts/source-sans-3/400/regular.ttf") format("truetype");
        font-weight: 400;
      }
      @font-face {
        font-family: SourceSans3;
        src: url("../../assets/fonts/source-sans-3/700/regular.ttf") format("truetype");
        font-weight: 700;
      }
    </style>
    <linearGradient id="readmeOverlay" x1="0" x2="1" y1="0" y2="0" gradientUnits="objectBoundingBox">
      <stop offset="0" stop-color="#0B2649" stop-opacity="0.72"/>
      <stop offset="0.5" stop-color="#0B2649" stop-opacity="0.5"/>
      <stop offset="1" stop-color="#0B2649" stop-opacity="0"/>
    </linearGradient>
    <defs>
<clipPath id="readme-clip0_201_144">
<rect width="1480" height="347" fill="white"/>
</clipPath>
<clipPath id="readme-clip1_201_144">
<rect width="318" height="280" fill="white"/>
</clipPath>
</defs>
  </defs>
  <!-- Background: embedded 5.svg (same as OG banners) -->
  <g transform="translate(600,100) scale(1.171875) translate(-512,-512)"><rect x="0" y="0" width="1024" height="1024" fill="#1ea1b9" />
<g transform="scale(4.000000) translate(0.5 0.5)">
<polygon class="polygon-1" fill="#57c8b9" fill-opacity="0.501961" points="0,0 268,-15 0,148" />
<polygon class="polygon-2" fill="#0077b4" fill-opacity="0.501961" points="257,271 260,56 54,251" />
<polygon class="polygon-3" fill="#00c4d1" fill-opacity="0.501961" points="-16,271 8,62 162,237" />
<polygon class="polygon-4" fill="#3f82a3" fill-opacity="0.501961" points="245,167 105,10 271,-16" />
<polygon class="polygon-5" fill="#36cbc0" fill-opacity="0.501961" points="-16,152 108,127 4,-16" />
<polygon class="polygon-6" fill="#0081b5" fill-opacity="0.501961" points="87,246 271,263 249,122" />
<polygon class="polygon-7" fill="#53c3bb" fill-opacity="0.501961" points="163,11 -9,61 4,-16" />
<polygon class="polygon-8" fill="#009ec3" fill-opacity="0.501961" points="174,127 162,271 13,247" />
<polygon class="polygon-9" fill="#369db2" fill-opacity="0.501961" points="162,-16 195,113 94,92" />
<polygon class="polygon-10" fill="#16b6bf" fill-opacity="0.501961" points="130,165 -16,166 79,71" />
<polygon class="polygon-11" fill="#02c0d2" fill-opacity="0.501961" points="74,266 5,137 -16,254" />
<polygon class="polygon-12" fill="#4484a4" fill-opacity="0.501961" points="271,77 187,21 252,-16" />
</g></g>
  <!-- Dark overlay for contrast -->
  <rect width="1200" height="200" fill="url(#readmeOverlay)"/>
  <!-- Thinkport + Venitus horizontal logo (hidden when title would overlap) -->
  <g transform="translate(56, 64) scale(0.207492795389049)"><g clip-path="url(#readme-clip0_201_144)">
<path d="M820.1 162.6L773.7 101.4L773.5 101.2H766.2V179.2H775.1V117.8L821.3 179L821.4 179.2H829V101.2H820.1V162.6ZM683.6 101.2H692.7V179.2H683.6V101.2ZM601.1 134.1H564V101.2H554.9V179.2H564V143.3H601.1V179.2H610.2V101.2H601.1V134.1ZM434.1 110.4H453.4V179.2H462.6V110.4H481.5V101.2H434.1V110.4ZM960.1 101.2H948L911.5 137.9V101.2H902.4V179.2H911.5V140.6L947.4 179.1L947.5 179.2H960.3L922.2 139.1L960.1 101.2ZM1346.6 142.1C1348.5 140.7 1350.2 139.1 1351.5 137.2C1352.8 135.3 1353.9 133.2 1354.7 131C1355.5 128.7 1355.9 126.3 1355.9 123.9C1355.9 120.8 1355.3 117.8 1354.1 115.1C1352.9 112.4 1351.3 110 1349.3 108C1347.3 106 1344.9 104.4 1342.2 103.2C1339.5 102 1336.5 101.4 1333.5 101.4H1304.3V179.4H1313.4V146.5H1330.8L1348.8 179.4H1359.1L1341.1 145.3C1343 144.4 1344.9 143.4 1346.6 142.1ZM1346.8 123.8C1346.8 125.6 1346.4 127.4 1345.7 129C1345 130.6 1344 132 1342.8 133.2C1341.6 134.4 1340.2 135.4 1338.6 136.1C1337 136.8 1335.2 137.2 1333.4 137.2H1313.3V110.4H1333.4C1335.2 110.4 1337 110.8 1338.6 111.5C1340.2 112.2 1341.7 113.2 1342.9 114.4C1344.1 115.6 1345.1 117 1345.8 118.6C1346.4 120.3 1346.8 122 1346.8 123.8ZM1432.1 101.2V110.4H1451.4V179.2H1460.6V110.4H1479.5V101.2H1432.1ZM1221.7 112.3C1218.7 108.7 1214.8 105.7 1210.3 103.5C1205.7 101.3 1200.4 100.2 1194.4 100.2C1188.4 100.2 1183.1 101.3 1178.6 103.5C1174.1 105.7 1170.3 108.6 1167.3 112.3C1164.3 115.9 1162 120.2 1160.4 124.9C1158.9 129.6 1158.1 134.6 1158.1 139.8C1158.1 145 1158.9 150 1160.4 154.8C1161.9 159.6 1164.2 163.9 1167.3 167.6C1170.3 171.3 1174.1 174.3 1178.6 176.5C1183.1 178.7 1188.4 179.9 1194.4 179.9C1200.4 179.9 1205.7 178.8 1210.3 176.5C1214.9 174.3 1218.7 171.3 1221.7 167.6C1224.7 163.9 1227 159.6 1228.6 154.8C1230.1 150 1230.9 145 1230.9 139.8C1230.9 134.6 1230.1 129.6 1228.6 124.9C1227 120.2 1224.7 115.9 1221.7 112.3ZM1221.6 139.9C1221.6 144.1 1221 148.1 1219.9 151.8C1218.8 155.5 1217 158.8 1214.8 161.6C1212.5 164.4 1209.7 166.6 1206.3 168.2C1202.9 169.8 1198.9 170.6 1194.4 170.6C1190 170.6 1186 169.8 1182.7 168.1C1179.4 166.5 1176.5 164.2 1174.3 161.4C1172 158.6 1170.3 155.3 1169.2 151.6C1168 147.9 1167.5 143.9 1167.5 139.8C1167.5 135.7 1168.1 131.7 1169.2 128C1170.3 124.3 1172.1 121 1174.3 118.3C1176.6 115.5 1179.4 113.3 1182.7 111.7C1186 110.1 1190 109.3 1194.4 109.3C1198.9 109.3 1202.9 110.1 1206.3 111.8C1209.7 113.4 1212.5 115.7 1214.8 118.4C1217.1 121.2 1218.8 124.4 1219.9 128.1C1221 131.8 1221.6 135.8 1221.6 139.9ZM1078.1 107.9C1076.1 105.9 1073.7 104.3 1071 103.1C1068.3 101.9 1065.3 101.3 1062.3 101.3H1033V179.3H1042.1V146.4H1062.2C1065.3 146.4 1068.2 145.8 1070.9 144.7C1073.6 143.6 1076 141.9 1078 139.9C1080 137.9 1081.6 135.5 1082.8 132.8C1084 130.1 1084.6 127.1 1084.6 124C1084.6 120.9 1084 117.9 1082.8 115.2C1081.7 112.3 1080.1 109.9 1078.1 107.9ZM1075.6 123.8C1075.6 125.6 1075.2 127.4 1074.5 129C1073.8 130.6 1072.8 132 1071.6 133.2C1070.4 134.4 1069 135.4 1067.4 136.1C1065.8 136.8 1064 137.2 1062.2 137.2H1042.1V110.4H1062.2C1064 110.4 1065.8 110.8 1067.4 111.5C1069 112.2 1070.5 113.2 1071.7 114.4C1072.9 115.6 1073.9 117 1074.6 118.6C1075.2 120.3 1075.6 122 1075.6 123.8Z" fill="white"/>
<path d="M1133.41 270.5L1129.91 258.92H1113.49L1110 270.5H1101.12L1114.82 227.66H1128.76L1142.52 270.5H1133.41ZM1120.31 236.24L1115.79 251.12H1127.49L1122.97 236.24H1120.31Z" fill="white" fill-opacity="0.6"/>
<path d="M1174.2 270.5L1161.47 227.66H1170.82L1180.35 261.86H1183.13L1192.66 227.66H1201.89L1189.16 270.5H1174.2Z" fill="white" fill-opacity="0.6"/>
<path d="M1217.04 262.52H1240.57V270.5H1208.05V227.66H1239.91V235.64H1217.04V244.64H1234.84V252.44H1217.04V262.52Z" fill="white" fill-opacity="0.6"/>
<path d="M1277.26 227.66H1285.47V270.5H1273.82L1258.01 241.46H1256.44V270.5H1248.24V227.66H1259.88L1275.69 256.7H1277.26V227.66Z" fill="white" fill-opacity="0.6"/>
<path d="M1295.72 227.66H1304.72V270.5H1295.72V227.66Z" fill="white" fill-opacity="0.6"/>
<path d="M1346.71 227.66V235.52H1333.32V270.5H1324.33V235.52H1310.93V227.66H1346.71Z" fill="white" fill-opacity="0.6"/>
<path d="M1379.66 227.66H1388.65V254.72C1388.65 260.06 1387.08 264.14 1383.94 267.02C1380.81 269.9 1376.34 271.34 1370.49 271.34C1364.63 271.34 1360.29 269.9 1357.15 267.02C1354.01 264.14 1352.44 260.06 1352.44 254.72V227.66H1361.44V254.54C1361.44 257.24 1362.22 259.34 1363.85 260.96C1365.42 262.52 1367.65 263.36 1370.49 263.36C1373.32 263.36 1375.62 262.58 1377.18 260.96C1378.75 259.4 1379.54 257.24 1379.54 254.54V227.66H1379.66Z" fill="white" fill-opacity="0.6"/>
<path d="M1430.89 239.42H1421.72C1420.99 236.18 1418.4 234.56 1413.87 234.56C1411.82 234.56 1410.13 234.98 1408.8 235.82C1407.48 236.66 1406.81 237.86 1406.81 239.48C1406.81 241.76 1408.62 243.2 1412.18 243.86L1420.21 245.3C1427.99 246.74 1431.91 250.94 1431.91 257.84C1431.91 261.68 1430.41 264.92 1427.45 267.5C1424.49 270.08 1420.21 271.4 1414.6 271.4C1408.98 271.4 1404.88 270.14 1401.68 267.68C1398.48 265.22 1396.61 261.8 1396.19 257.54H1405.36C1406.03 261.68 1409.23 263.72 1414.96 263.72C1417.37 263.72 1419.3 263.24 1420.75 262.28C1422.2 261.32 1422.86 260 1422.86 258.32C1422.86 256.64 1422.38 255.5 1421.35 254.72C1420.39 253.94 1418.88 253.34 1416.95 252.98L1408.74 251.54C1401.38 250.28 1397.7 246.38 1397.7 239.84C1397.7 236.18 1399.15 233.12 1402.04 230.66C1404.94 228.2 1408.92 227 1413.93 227C1418.64 227 1422.5 228.14 1425.58 230.36C1428.59 232.58 1430.41 235.64 1430.89 239.54V239.42Z" fill="white" fill-opacity="0.6"/>
<path d="M1133.35 330.8H1143C1142.34 335.3 1140.35 338.9 1137.03 341.66C1133.71 344.42 1129.49 345.74 1124.42 345.74C1117.72 345.74 1112.47 343.64 1108.73 339.44C1104.99 335.24 1103.06 329.72 1103.06 322.76C1103.06 315.8 1104.93 310.28 1108.73 306.08C1112.53 301.88 1117.72 299.78 1124.36 299.78C1129.24 299.78 1133.29 301.04 1136.55 303.56C1139.8 306.08 1141.8 309.38 1142.52 313.52H1132.8C1131.78 309.86 1128.94 308.06 1124.36 308.06C1120.56 308.06 1117.6 309.44 1115.61 312.2C1113.62 314.96 1112.59 318.5 1112.59 322.76C1112.59 327.02 1113.62 330.56 1115.61 333.32C1117.6 336.08 1120.56 337.46 1124.36 337.46C1126.71 337.46 1128.7 336.86 1130.27 335.72C1131.84 334.52 1132.8 332.9 1133.29 330.8H1133.35Z" fill="white" fill-opacity="0.6"/>
<path d="M1155.13 306.26C1158.93 302 1164.24 299.84 1171.12 299.84C1178 299.84 1183.31 302 1187.11 306.26C1190.91 310.52 1192.84 316.04 1192.84 322.76C1192.84 329.48 1190.91 335 1187.11 339.26C1183.31 343.52 1178 345.68 1171.12 345.68C1164.24 345.68 1158.93 343.52 1155.13 339.26C1151.33 335 1149.4 329.48 1149.4 322.76C1149.4 316.04 1151.33 310.52 1155.13 306.26ZM1171.12 337.52C1175.1 337.52 1178.12 336.14 1180.17 333.44C1182.22 330.74 1183.25 327.2 1183.25 322.82C1183.25 318.44 1182.22 314.96 1180.17 312.2C1178.12 309.5 1175.1 308.12 1171.12 308.12C1167.14 308.12 1164.18 309.5 1162.07 312.26C1159.96 315.02 1158.93 318.56 1158.93 322.82C1158.93 327.08 1159.96 330.62 1162.07 333.38C1164.12 336.14 1167.14 337.52 1171.12 337.52Z" fill="white" fill-opacity="0.6"/>
<path d="M1201.47 344.96V300.68H1215.77L1223.07 318.56H1224.7L1231.94 300.68H1246.31V344.96H1237.62V311.96H1235.99L1228.5 329.84H1219.21L1211.79 311.96H1210.16V344.96H1201.47Z" fill="white" fill-opacity="0.6"/>
<path d="M1256.93 300.68H1277.26C1282.39 300.68 1286.31 301.94 1289.15 304.4C1291.98 306.86 1293.37 310.34 1293.37 314.78C1293.37 319.22 1291.98 322.82 1289.15 325.34C1286.37 327.86 1282.39 329.12 1277.26 329.12H1266.22V345.02H1256.93V300.74V300.68ZM1266.22 320.96H1275.93C1278.71 320.96 1280.7 320.48 1281.97 319.46C1283.23 318.44 1283.84 316.94 1283.84 314.9C1283.84 312.86 1283.23 311.36 1281.97 310.34C1280.7 309.32 1278.71 308.84 1275.93 308.84H1266.22V321.02V320.96Z" fill="white" fill-opacity="0.6"/>
<path d="M1327.46 344.96L1323.84 333.02H1306.89L1303.27 344.96H1294.1L1308.28 300.68H1322.7L1336.94 344.96H1327.52H1327.46ZM1313.89 309.56L1309.24 324.92H1321.31L1316.66 309.56H1313.89Z" fill="white" fill-opacity="0.6"/>
<path d="M1373.5 300.68H1382.01V344.96H1370L1353.65 314.96H1352.02V344.96H1343.51V300.68H1355.58L1371.93 330.68H1373.56V300.68H1373.5Z" fill="white" fill-opacity="0.6"/>
<path d="M1407.78 318.32H1409.53L1419.06 300.62H1428.9L1413.33 329.12V344.9H1403.98V329.12L1388.47 300.62H1398.24L1407.78 318.32Z" fill="white" fill-opacity="0.6"/>
<path d="M1010.67 287.06H956.307V341.12H1010.67V287.06Z" fill="white" fill-opacity="0.6"/>
<path d="M956.367 233H902V287.06H956.367V233Z" fill="white" fill-opacity="0.6"/>
<path d="M1065.04 233H1010.67V287.06H1065.04V233Z" fill="white" fill-opacity="0.6"/>
<g clip-path="url(#readme-clip1_201_144)">
<path d="M234.721 279.21C224.557 278.068 215.388 276.956 206.015 274.878C205.077 274.673 204.111 274.468 203.173 274.234C195.235 272.478 187.736 270.809 180.296 270.546C178.978 270.487 177.659 270.487 176.341 270.487C164.8 270.487 152.468 272.214 137.558 275.902C136.445 276.195 135.507 276.253 134.658 276.341C134.218 276.37 133.691 276.429 132.871 276.517L131.084 270.897C119.426 274.263 107.24 277.219 93.3554 277.424L86.0322 277.541L81.0525 262.379L87.5555 258.223C88.7271 257.462 90.6019 256.291 92.8574 254.857L93.0625 254.74C97.017 252.164 100.766 249.734 104.809 247.451C109.496 244.612 112.688 242.71 114.944 241.48L116.614 219.41C107.914 216.249 99.624 212.034 91.92 206.766C82.107 200.092 73.4657 191.926 66.2012 182.501C58.878 172.988 53.166 162.421 49.2701 151.093C45.2277 139.385 43.1772 127.121 43.1772 114.652V106.046L128.301 93.6065L129.063 84.4742L0 61.7604L5.59488 30.0314L67.1385 40.8614C76.6586 29.1825 88.5514 19.4648 101.85 12.4984C117.551 4.33201 135.244 0 153.054 0C172.533 0 191.69 5.12231 208.475 14.8693C224.732 24.2944 238.441 37.788 248.108 53.9452L254.962 65.3899L184.016 83.5375L184.602 93.1382L318 116.554L312.405 148.284L263.047 139.59C259.151 156.626 251.272 172.549 239.935 186.101C228.218 200.121 213.338 210.981 196.582 217.83L197.725 233.782C200.683 235.392 202.675 237.529 203.818 238.758L203.847 238.787C205.458 240.514 207.86 242.3 213.455 242.3C213.66 242.3 213.894 242.3 214.099 242.3C214.099 242.3 214.334 242.3 214.422 242.3C217.029 242.3 219.431 243.002 220.632 243.441C226.461 245.49 228.365 249.237 228.921 252.076C229.244 253.686 229.888 256.613 238.148 257.93L251.594 260.038L245.501 272.214C245.413 272.39 245.354 272.565 245.267 272.712C245.12 273.034 244.944 273.414 244.739 273.824L241.634 280.029L234.721 279.21Z" fill="white" fill-opacity="0.6"/>
<path d="M182.405 103.149L182.375 103.266L182.405 103.149Z" fill="#00BCD4"/>
<path d="M135.361 65.3314H141.776C157.653 39.6613 171.625 65.3314 171.625 65.3314H177.308V75.3126L239.555 59.3895C221.95 29.9728 189.786 10.3032 153.054 10.3032C119.455 10.3032 89.6938 26.7531 71.3567 52.0719L13.6796 41.9151L11.5413 54.033L135.361 75.8102V65.3314Z" fill="#FF5722"/>
<path d="M182.639 103.236V115.676H179.271L186.096 211.42C222.536 199.477 249.866 167.426 254.992 128.409L304.32 137.102L306.459 124.984L182.639 103.236Z" fill="#00BCD4"/>
<path d="M127.159 212.678L134.511 115.179H131.084V103.617L53.1367 115.003C53.1367 161.514 84.4212 200.707 127.1 212.678H127.159Z" fill="#00BCD4"/>
<path d="M219.138 254.301C218.991 253.51 215.974 252.544 214.334 252.574C206.893 252.749 201.035 250.759 196.524 245.9C194.444 243.676 192.13 241.51 188.293 242.036L179.27 115.676H182.639V103.236H175.228L173.5 75.3126H177.308V65.3314H171.625C171.625 65.3314 157.653 39.6613 141.776 65.3314H135.361V75.8102H139.843L137.499 103.617H131.084V115.179H134.511L124.464 248.154C123.439 248.651 122.502 249.12 121.652 249.588H121.623C119.397 250.642 114.827 253.364 109.876 256.379C105.951 258.603 102.172 261.062 98.2473 263.609C95.9917 265.043 94.117 266.214 92.9453 266.975L93.2382 267.824C115.94 267.502 134.511 258.867 154.635 254.301C147.4 258.311 140.194 262.291 131.817 266.945C133.955 266.711 134.57 266.741 135.127 266.594C149.978 262.906 165.239 260.389 180.647 260.945C189.992 261.267 199.102 263.492 208.182 265.482C217.351 267.502 226.519 268.585 235.864 269.638C236.127 269.111 236.362 268.555 236.625 268.028C226.695 266.506 220.719 262.174 219.138 254.301ZM145.789 76.1029H158.854V103.471H143.914L145.789 76.1029ZM157.828 218.005C157.301 226.026 157.096 232.963 157.184 238.846C146.141 240.309 137.324 242.856 130.674 245.432L139.843 115.911H158.824C160.084 121.969 160.611 126.243 160.377 128.789C159.557 138.039 156.92 142.371 156.92 149.688C156.92 159.67 162.867 165.524 162.867 178.022C162.867 190.521 159.176 197.428 157.828 218.005Z" fill="#0B2649"/>
</g>
</g>
  </g>
  <!-- Title + subtitle + tag + accent (right-aligned, vertically centred) -->
  <text x="1144" y="81" text-anchor="end" font-family="HankenGrotesk, 'Hanken Grotesk', sans-serif" font-size="48" font-weight="700" fill="#FFFFFF">Web Application</text>
  <text x="1144" y="118" text-anchor="end" font-family="SourceSans3, 'Source Sans 3', sans-serif" font-size="22" font-weight="400" fill="#E8E8E8">Frontend and user interfaces</text>
  <text x="1144" y="144" text-anchor="end" font-family="SourceSans3, 'Source Sans 3', sans-serif" font-size="20" font-weight="400" fill="#00BCD4">React • TypeScript • Vite</text>
  <rect x="1024" y="164" width="120" height="4" fill="#00BCD4"/>
</svg>
