<?xml version="1.0" encoding="UTF-8"?><svg id="svg74" xmlns="http://www.w3.org/2000/svg" viewBox="0 0 1085.62 1130.14"><defs><style>.cls-1{fill:none;}.cls-2{fill:#00bcd4;}.cls-3{fill:#ff5722;}.cls-4{fill:#fff;}.cls-5{fill:#0b2649;}</style></defs><path class="cls-4" d="M801.29,953.92c-34.69-3.91-66.01-7.73-98.01-14.78-3.22-.71-6.48-1.43-9.74-2.15-27.08-6.01-52.67-11.69-78.11-12.57-4.48-.16-9.01-.24-13.52-.24-39.41,0-81.48,5.89-132.36,18.52-3.84,.98-7.05,1.24-9.89,1.47-1.49,.12-3.34,.27-6.05,.57l-6.11-19.17c-39.75,11.5-81.4,21.65-128.79,22.33l-25.01,.36-16.98-51.78,22.23-14.2c4.05-2.58,10.43-6.65,18.1-11.49l.68-.44c13.52-8.78,26.29-17.07,40.11-24.93,16-9.75,26.89-16.17,34.57-20.38l5.69-75.39c-29.72-10.77-57.98-25.23-84.29-43.16-33.51-22.84-63.05-50.74-87.78-82.93-25-32.54-44.46-68.64-57.82-107.28-13.82-39.97-20.83-81.88-20.83-124.54v-29.4l290.66-42.49,2.63-31.24L0,211.02,19.11,102.61l210.1,37.03c32.49-39.87,73.12-73.11,118.54-96.86C401.3,14.79,461.73,0,522.51,0c66.52,0,131.94,17.55,189.2,50.75,55.54,32.2,102.32,78.37,135.29,133.51l23.39,39.11-242.19,62,2.03,32.79,455.39,80.05-19.12,108.42-168.53-29.72c-13.28,58.24-40.19,112.62-78.86,158.9-40.02,47.9-90.8,85-148.02,108.38l3.89,54.53c10.07,5.52,16.91,12.84,20.78,16.99l.08,.08c5.49,5.91,13.67,11.96,32.82,11.96,.74,0,1.49,0,2.24-.03,0,0,.76-.01,1.06-.01,8.87,0,17.11,2.42,21.24,3.86,19.92,6.97,26.4,19.81,28.29,29.5,1.1,5.5,3.34,15.54,31.49,19.96l45.95,7.21-20.79,41.6c-.28,.57-.55,1.15-.81,1.74-.49,1.06-1.09,2.37-1.79,3.78l-10.63,21.25-23.61-2.66Z"/><g><polygon class="cls-4" points="186.91 1084.64 149.91 1084.64 149.91 1051.74 140.81 1051.74 140.81 1129.74 149.91 1129.74 149.91 1093.74 186.91 1093.74 186.91 1129.74 196.01 1129.74 196.01 1051.74 186.91 1051.74 186.91 1084.64"/><rect class="cls-4" x="269.51" y="1051.74" width="9.1" height="78"/><polygon class="cls-4" points="405.91 1113.15 359.51 1051.94 359.36 1051.74 352.01 1051.74 352.01 1129.74 360.91 1129.74 360.91 1068.33 407.11 1129.54 407.26 1129.74 414.81 1129.74 414.81 1051.74 405.91 1051.74 405.91 1113.15"/><polygon class="cls-4" points="19.91 1060.84 39.31 1060.84 39.31 1129.74 48.41 1129.74 48.41 1060.84 67.31 1060.84 67.31 1051.74 19.91 1051.74 19.91 1060.84"/><path class="cls-4" d="M807.49,1062.82c-2.96-3.55-6.71-6.4-11.47-8.73-4.62-2.15-9.97-3.25-15.91-3.25-6.27,0-11.45,1.06-15.81,3.25-4.45,2.07-8.27,5.01-11.37,8.73-3.1,3.72-5.42,7.95-6.89,12.57-1.54,4.83-2.32,9.83-2.32,14.85s.76,9.95,2.32,14.95c1.49,4.78,3.81,9.07,6.89,12.77,2.98,3.58,6.8,6.55,11.36,8.83,4.61,2.25,9.79,3.35,15.82,3.35s11.31-1.1,15.92-3.35c4.6-2.25,8.46-5.22,11.46-8.83,3.03-3.64,5.35-7.93,6.89-12.77,1.54-4.83,2.32-9.86,2.32-14.95s-.78-10.02-2.32-14.85c-1.47-4.62-3.79-8.85-6.89-12.57Zm-.08,27.62c0,4.16-.6,8.11-1.78,11.76-1.02,3.54-2.74,6.84-5.11,9.83-2.17,2.73-4.92,4.91-8.43,6.66-3.25,1.62-7.24,2.45-11.88,2.45s-8.43-.82-11.68-2.45c-3.51-1.76-6.27-3.93-8.43-6.66-2.16-2.72-3.88-6.04-5.12-9.84-1.16-3.58-1.78-7.65-1.78-11.75,0-3.72,.6-7.68,1.78-11.76,1.04-3.59,2.76-6.86,5.11-9.72,2.17-2.65,5.01-4.86,8.44-6.57,3.25-1.62,7.18-2.45,11.68-2.45s8.63,.82,11.88,2.45c3.33,1.67,6.17,3.91,8.44,6.67,2.26,2.75,3.93,5.9,5.11,9.63,1.2,3.79,1.78,7.63,1.78,11.75Z"/><polygon class="cls-4" points="545.91 1051.74 533.8 1051.74 497.31 1088.43 497.31 1051.74 488.21 1051.74 488.21 1129.74 497.41 1129.74 497.41 1091.11 533.24 1129.58 533.39 1129.74 546.07 1129.74 508.01 1089.65 545.91 1051.74"/><path class="cls-4" d="M663.95,1058.38c-2.16-2.05-4.49-3.62-7.14-4.79-2.79-1.24-5.64-1.84-8.7-1.84h-29.2v78h9.1v-32.9h20.1c2.98,0,5.82-.57,8.7-1.74,3.01-1.34,5.35-2.91,7.16-4.81,1.91-2.01,3.56-4.48,4.79-7.14,1.21-2.62,1.85-5.67,1.85-8.81s-.62-6.05-1.84-8.79c-1.13-2.77-2.8-5.25-4.82-7.17Zm-2.45,15.96c0,1.75-.36,3.5-1.05,5.19-.8,1.7-1.78,3.14-2.92,4.27-1.12,1.22-2.55,2.19-4.22,2.88-1.71,.71-3.46,1.06-5.21,1.06h-20.1v-26.9h20.1c1.82,0,3.56,.39,5.21,1.16,1.77,.73,3.2,1.94,4.25,2.91,1.22,1.12,2.19,2.55,2.88,4.22,.7,1.71,1.06,3.46,1.06,5.21Z"/><polygon class="cls-4" points="1017.91 1051.74 1017.91 1060.84 1037.31 1060.84 1037.31 1129.74 1046.41 1129.74 1046.41 1060.84 1065.31 1060.84 1065.31 1051.74 1017.91 1051.74"/><path class="cls-4" d="M932.5,1092.64c1.93-1.42,3.58-3.08,4.91-4.91,1.3-1.8,2.33-3.84,3.17-6.23,.83-2.38,1.23-4.72,1.23-7.16,0-3.09-.62-6.05-1.84-8.79-1.13-2.77-2.79-5.25-4.82-7.17-2.16-2.05-4.49-3.62-7.14-4.79-2.79-1.24-5.64-1.84-8.7-1.84h-29.2v78h9.1v-32.9h17.4l17.86,32.64,.14,.26h10.22l-18.01-34.11c2.07-.72,3.93-1.7,5.68-2.99Zm.2-18.3c0,1.75-.36,3.5-1.05,5.19-.73,1.55-1.66,2.91-2.92,4.27-1.12,1.22-2.55,2.19-4.22,2.88-1.71,.71-3.46,1.06-5.21,1.06h-20.1v-26.9h20.1c1.82,0,3.56,.39,5.21,1.16,1.77,.73,3.2,1.94,4.25,2.91,1.22,1.12,2.19,2.55,2.88,4.22,.7,1.71,1.06,3.46,1.06,5.21Z"/></g><g><polygon class="cls-1" points="542.31 260.04 497.71 260.04 491.31 353.54 542.31 353.54 542.31 260.04"/><g><path class="cls-2" d="M453.81,731.64l.1-1.3-.1,1.3h0Z"/><path class="cls-2" d="M622.71,352.44l-.1,.4"/></g><path class="cls-1" d="M538.81,744.84c4.5-70.3,17.3-94,17.3-136.7s-20.3-62.8-20.3-96.8c0-25,9-39.8,11.8-71.4,.8-8.7-1-23.3-5.3-44h-64.8l-31.3,442.5c22.7-8.8,52.8-17.5,90.5-22.5-.4-20,.4-43.7,2.1-71.1Z"/><path class="cls-3" d="M462.11,223.24h21.9c54.2-87.7,101.9,0,101.9,0h19.4v34.1l212.5-54.4c-60.1-100.5-169.9-167.7-295.3-167.7-114.7,0-216.3,56.2-278.9,142.7L46.71,143.24l-7.3,41.4,422.7,74.4v-35.8Z"/><path class="cls-2" d="M623.51,352.74v42.5h-11.5l23.34,327.09c124.38-40.81,217.67-150.3,235.16-283.59l168.4,29.7,7.3-41.4-422.7-74.3Z"/><path class="cls-2" d="M434.06,726.64l25.15-333.1h-11.7v-39.5l-266.1,38.9c0,158.9,106.8,292.8,252.5,333.7h.15Z"/><path class="cls-5" d="M748.11,868.84c-.5-2.7-10.8-6-16.4-5.9-25.4,.6-45.4-6.2-60.8-22.8-7.1-7.6-15-15-28.1-13.2l-30.8-431.7h11.5v-42.5h-25.3l-5.9-95.4h13v-34.1h-19.4s-47.7-87.7-101.9,0h-21.9v35.8h15.3l-8,95h-21.9v39.5h11.7l-34.3,454.3c-3.5,1.7-6.7,3.3-9.6,4.9h-.1c-7.6,3.6-23.2,12.9-40.1,23.2-13.4,7.6-26.3,16-39.7,24.7-7.69,4.85-14.09,8.93-18.13,11.51l.96,2.94c77.52-1.1,140.93-30.63,209.57-46.15-24.7,13.7-49.3,27.3-77.9,43.2,7.3-.8,9.4-.7,11.3-1.2,50.7-12.6,102.8-21.2,155.4-19.3,31.9,1.1,63,8.7,94,15.5,31.3,6.9,62.6,10.6,94.5,14.2,.9-1.8,1.7-3.7,2.6-5.5-33.8-5.3-54.2-20.1-59.6-47ZM497.71,260.04h44.6v93.5h-51l6.4-93.5Zm41.1,484.8c-1.8,27.4-2.5,51.1-2.2,71.2-37.7,5-67.8,13.7-90.5,22.5l31.3-442.5h64.8c4.3,20.7,6.1,35.3,5.3,44-2.8,31.6-11.8,46.4-11.8,71.4,0,34.1,20.3,54.1,20.3,96.8s-12.6,66.3-17.2,136.6Z"/></g></svg>