<?xml version="1.0" encoding="UTF-8"?>
<svg id="Ebene_1" data-name="Ebene 1" xmlns="http://www.w3.org/2000/svg" viewBox="0 0 54.82 44.65">
  <defs>
    <style>
      .cls-1 {
        fill: #202020;
      }
    </style>
  </defs>
  <g>
    <path class="cls-1" d="M5.35,32.11l-.58-1.93h-2.72l-.58,1.93H0l2.27-7.14h2.31l2.28,7.14h-1.51ZM3.18,26.4l-.75,2.48h1.94l-.75-2.48h-.44Z"/>
    <path class="cls-1" d="M12.11,32.11l-2.11-7.14h1.55l1.58,5.7h.46l1.58-5.7h1.53l-2.11,7.14h-2.48Z"/>
    <path class="cls-1" d="M19.21,30.78h3.9v1.33h-5.39v-7.14h5.28v1.33h-3.79v1.5h2.95v1.3h-2.95v1.68Z"/>
    <path class="cls-1" d="M29.19,24.97h1.36v7.14h-1.93l-2.62-4.84h-.26v4.84h-1.36v-7.14h1.93l2.62,4.84h.26v-4.84Z"/>
    <path class="cls-1" d="M32.25,24.97h1.49v7.14h-1.49v-7.14Z"/>
    <path class="cls-1" d="M40.7,24.97v1.31h-2.22v5.83h-1.49v-5.83h-2.22v-1.31h5.93Z"/>
    <path class="cls-1" d="M46.16,24.97h1.49v4.51c0,.89-.26,1.57-.78,2.05-.52.48-1.26.72-2.23.72s-1.69-.24-2.21-.72c-.52-.48-.78-1.16-.78-2.05v-4.51h1.49v4.48c0,.45.13.8.4,1.07.26.26.63.4,1.1.4s.85-.13,1.11-.4c.26-.26.39-.62.39-1.07v-4.48Z"/>
    <path class="cls-1" d="M54.65,26.93h-1.52c-.12-.54-.55-.81-1.3-.81-.34,0-.62.07-.84.21s-.33.34-.33.61c0,.38.3.62.89.73l1.33.24c1.29.24,1.94.94,1.94,2.09,0,.64-.25,1.18-.74,1.61-.49.43-1.2.65-2.13.65s-1.61-.21-2.14-.62c-.53-.41-.84-.98-.91-1.69h1.52c.11.69.64,1.03,1.59,1.03.4,0,.72-.08.96-.24.24-.16.35-.38.35-.66s-.08-.47-.25-.6c-.16-.13-.41-.23-.73-.29l-1.36-.24c-1.22-.21-1.83-.86-1.83-1.95,0-.61.24-1.12.72-1.53.48-.41,1.14-.61,1.97-.61.78,0,1.42.19,1.93.56.5.37.8.88.88,1.53Z"/>
    <path class="cls-1" d="M5.34,42.16h1.6c-.11.75-.44,1.35-.99,1.81s-1.25.68-2.09.68c-1.11,0-1.98-.35-2.6-1.05-.62-.7-.94-1.62-.94-2.78s.31-2.08.94-2.78c.63-.7,1.49-1.05,2.59-1.05.81,0,1.48.21,2.02.63.54.42.87.97.99,1.66h-1.61c-.17-.61-.64-.91-1.4-.91-.63,0-1.12.23-1.45.69-.33.46-.5,1.05-.5,1.76s.17,1.3.5,1.76c.33.46.82.69,1.45.69.39,0,.72-.1.98-.29.26-.2.42-.47.5-.82Z"/>
    <path class="cls-1" d="M8.95,38.07c.63-.71,1.51-1.07,2.65-1.07s2.02.36,2.65,1.07c.63.71.95,1.63.95,2.75s-.32,2.04-.95,2.75c-.63.71-1.51,1.07-2.65,1.07s-2.02-.36-2.65-1.07c-.63-.71-.95-1.63-.95-2.75s.32-2.04.95-2.75ZM11.6,43.28c.66,0,1.16-.23,1.5-.68.34-.45.51-1.04.51-1.77s-.17-1.31-.51-1.77c-.34-.45-.84-.68-1.5-.68s-1.15.23-1.5.69c-.35.46-.52,1.05-.52,1.76s.17,1.3.52,1.76c.34.46.84.69,1.5.69Z"/>
    <path class="cls-1" d="M16.63,44.52v-7.38h2.37l1.21,2.98h.27l1.2-2.98h2.38v7.38h-1.44v-5.5h-.27l-1.24,2.98h-1.54l-1.23-2.98h-.27v5.5h-1.44Z"/>
    <path class="cls-1" d="M25.82,37.14h3.37c.85,0,1.5.21,1.97.62.47.41.7.99.7,1.73s-.23,1.34-.7,1.76c-.46.42-1.12.63-1.97.63h-1.83v2.65h-1.54v-7.38ZM27.36,40.52h1.61c.46,0,.79-.08,1-.25s.31-.42.31-.76-.1-.59-.31-.76-.54-.25-1-.25h-1.61v2.03Z"/>
    <path class="cls-1" d="M37.51,44.52l-.6-1.99h-2.81l-.6,1.99h-1.52l2.35-7.38h2.39l2.36,7.38h-1.56ZM35.26,38.62l-.77,2.56h2l-.77-2.56h-.46Z"/>
    <path class="cls-1" d="M45.14,37.14h1.41v7.38h-1.99l-2.71-5h-.27v5h-1.41v-7.38h2l2.71,5h.27v-5Z"/>
    <path class="cls-1" d="M50.82,40.08h.29l1.58-2.95h1.63l-2.58,4.75v2.63h-1.55v-2.63l-2.57-4.75h1.62l1.58,2.95Z"/>
  </g>
  <g>
    <rect class="cls-1" x="22.9" y="9.01" width="9.01" height="9.01"/>
    <rect class="cls-1" x="13.9" width="9.01" height="9.01"/>
    <rect class="cls-1" x="31.91" width="9.01" height="9.01"/>
  </g>
</svg>