<svg width="1000" height="1000" viewBox="0 0 1000 1000" fill="none" xmlns="http://www.w3.org/2000/svg">
<path d="M736.688 935.436C704.916 931.865 676.257 928.386 646.957 921.885C644.027 921.244 641.006 920.603 638.076 919.87C613.263 914.376 589.823 909.157 566.566 908.333C562.445 908.15 558.325 908.15 554.205 908.15C518.129 908.15 479.582 913.552 432.976 925.089C429.497 926.005 426.567 926.188 423.912 926.463C422.538 926.554 420.89 926.737 418.326 927.012L412.741 909.432C376.299 919.962 338.209 929.21 294.809 929.851L271.918 930.217L256.353 882.786L276.68 869.784C280.342 867.404 286.202 863.741 293.252 859.254L293.893 858.888C306.254 850.83 317.974 843.23 330.61 836.088C345.26 827.207 355.24 821.255 362.29 817.409L367.509 748.369C340.315 738.48 314.403 725.295 290.322 708.813C259.649 687.937 232.638 662.39 209.931 632.906C187.04 603.148 169.186 570.093 157.008 534.657C144.372 498.031 137.963 459.666 137.963 420.659V393.739L404.043 354.824L406.423 326.256L3 255.202L20.4884 155.945L212.861 189.824C242.618 153.29 279.793 122.891 321.362 101.098C370.439 75.5516 425.743 62 481.413 62C542.302 62 602.184 78.0238 654.649 108.515C705.466 137.999 748.317 180.21 778.532 230.754L799.958 266.556L578.194 323.326L580.025 353.359L997 426.611L979.512 525.867L825.229 498.672C813.051 551.963 788.421 601.774 752.987 644.169C716.362 688.028 669.848 721.999 617.474 743.425L621.045 793.328C630.293 798.364 636.519 805.048 640.09 808.894L640.182 808.985C645.218 814.388 652.726 819.973 670.214 819.973C670.855 819.973 671.588 819.973 672.229 819.973C672.229 819.973 672.961 819.973 673.236 819.973C681.385 819.973 688.893 822.171 692.647 823.544C710.868 829.954 716.819 841.674 718.559 850.556C719.566 855.592 721.581 864.748 747.401 868.869L789.428 875.461L770.383 913.552C770.109 914.102 769.926 914.651 769.651 915.109C769.193 916.116 768.644 917.306 768.003 918.588L758.297 938L736.688 935.436Z" fill="white"/>
<path d="M573.248 384.674L573.156 385.04L573.248 384.674Z" fill="#00BCD4"/>
<path d="M426.185 266.207H446.245C495.892 185.874 539.584 266.207 539.584 266.207H557.354V297.443L752 247.613C696.95 155.555 596.375 94 481.511 94C376.448 94 283.384 145.479 226.043 224.713L45.6867 192.928L39 230.85L426.185 299V266.207Z" fill="#FF5722"/>
<path d="M573.541 385V423.866H563L584.357 723C698.386 685.688 783.907 585.55 799.948 463.647L954.309 490.808L961 452.948L573.541 385Z" fill="#00BCD4"/>
<path d="M400.96 727L424 422.15H413.26V386L169 421.601C169 567.025 267.035 689.569 400.776 727H400.96Z" fill="#00BCD4"/>
<path d="M688.351 857.078C687.893 854.609 678.465 851.591 673.339 851.682C650.088 852.231 631.78 846.012 617.683 830.83C611.184 823.88 603.952 817.112 591.96 818.758L563.766 423.949H574.293V385.081H551.134L545.733 297.833H557.633V266.647H539.874C539.874 266.647 496.21 186.441 446.596 266.647H426.549V299.388H440.554L433.231 386.27H413.184V422.394H423.894L392.496 837.872C389.292 839.427 386.363 840.89 383.708 842.354H383.617C376.66 845.646 362.38 854.151 346.91 863.571C334.643 870.522 322.835 878.204 310.569 886.16C303.52 890.642 297.662 894.3 294 896.678L294.915 899.33C365.858 898.324 423.894 871.345 486.782 857.078C464.171 869.607 441.653 882.045 415.473 896.586C422.155 895.855 424.077 895.946 425.817 895.489C472.227 883.965 519.919 876.1 568.069 877.838C597.27 878.844 625.738 885.795 654.115 892.013C682.767 898.324 711.419 901.708 740.62 905C741.444 903.354 742.176 901.616 743 899.97C711.968 895.214 693.294 881.679 688.351 857.078ZM459.137 300.302H499.963V385.812H453.278L459.137 300.302ZM496.759 743.674C495.112 768.733 494.471 790.407 494.746 808.79C460.235 813.362 432.682 821.319 411.903 829.367L440.554 424.681H499.872C503.808 443.612 505.456 456.964 504.723 464.921C502.16 493.82 493.922 507.355 493.922 530.219C493.922 561.405 512.504 579.696 512.504 618.747C512.504 657.798 500.97 679.382 496.759 743.674Z" fill="#0B2649"/>
</svg>
