<svg width="1580" height="347" viewBox="0 0 1580 347" fill="none" xmlns="http://www.w3.org/2000/svg">
<g clip-path="url(#clip0_211_90)">
<path d="M1234.41 240.5L1230.91 228.92H1214.49L1211 240.5H1202.12L1215.82 197.66H1229.76L1243.52 240.5H1234.41ZM1221.31 206.24L1216.79 221.12H1228.49L1223.97 206.24H1221.31Z" fill="white" fill-opacity="0.6"/>
<path d="M1275.2 240.5L1262.47 197.66H1271.82L1281.35 231.86H1284.13L1293.66 197.66H1302.89L1290.16 240.5H1275.2Z" fill="white" fill-opacity="0.6"/>
<path d="M1318.04 232.52H1341.57V240.5H1309.05V197.66H1340.91V205.64H1318.04V214.64H1335.84V222.44H1318.04V232.52Z" fill="white" fill-opacity="0.6"/>
<path d="M1378.26 197.66H1386.47V240.5H1374.82L1359.01 211.46H1357.44V240.5H1349.24V197.66H1360.88L1376.69 226.7H1378.26V197.66Z" fill="white" fill-opacity="0.6"/>
<path d="M1396.72 197.66H1405.72V240.5H1396.72V197.66Z" fill="white" fill-opacity="0.6"/>
<path d="M1447.71 197.66V205.52H1434.32V240.5H1425.33V205.52H1411.93V197.66H1447.71Z" fill="white" fill-opacity="0.6"/>
<path d="M1480.66 197.66H1489.65V224.72C1489.65 230.06 1488.08 234.14 1484.94 237.02C1481.81 239.9 1477.34 241.34 1471.49 241.34C1465.63 241.34 1461.29 239.9 1458.15 237.02C1455.01 234.14 1453.44 230.06 1453.44 224.72V197.66H1462.44V224.54C1462.44 227.24 1463.22 229.34 1464.85 230.96C1466.42 232.52 1468.65 233.36 1471.49 233.36C1474.32 233.36 1476.62 232.58 1478.18 230.96C1479.75 229.4 1480.54 227.24 1480.54 224.54V197.66H1480.66Z" fill="white" fill-opacity="0.6"/>
<path d="M1531.89 209.42H1522.72C1521.99 206.18 1519.4 204.56 1514.87 204.56C1512.82 204.56 1511.13 204.98 1509.8 205.82C1508.48 206.66 1507.81 207.86 1507.81 209.48C1507.81 211.76 1509.62 213.2 1513.18 213.86L1521.21 215.3C1528.99 216.74 1532.91 220.94 1532.91 227.84C1532.91 231.68 1531.41 234.92 1528.45 237.5C1525.49 240.08 1521.21 241.4 1515.6 241.4C1509.98 241.4 1505.88 240.14 1502.68 237.68C1499.48 235.22 1497.61 231.8 1497.19 227.54H1506.36C1507.03 231.68 1510.23 233.72 1515.96 233.72C1518.37 233.72 1520.3 233.24 1521.75 232.28C1523.2 231.32 1523.86 230 1523.86 228.32C1523.86 226.64 1523.38 225.5 1522.35 224.72C1521.39 223.94 1519.88 223.34 1517.95 222.98L1509.74 221.54C1502.38 220.28 1498.7 216.38 1498.7 209.84C1498.7 206.18 1500.15 203.12 1503.04 200.66C1505.94 198.2 1509.92 197 1514.93 197C1519.64 197 1523.5 198.14 1526.58 200.36C1529.59 202.58 1531.41 205.64 1531.89 209.54V209.42Z" fill="white" fill-opacity="0.6"/>
<path d="M1234.35 300.8H1244C1243.34 305.3 1241.35 308.9 1238.03 311.66C1234.71 314.42 1230.49 315.74 1225.42 315.74C1218.72 315.74 1213.47 313.64 1209.73 309.44C1205.99 305.24 1204.06 299.72 1204.06 292.76C1204.06 285.8 1205.93 280.28 1209.73 276.08C1213.53 271.88 1218.72 269.78 1225.36 269.78C1230.24 269.78 1234.29 271.04 1237.55 273.56C1240.8 276.08 1242.8 279.38 1243.52 283.52H1233.8C1232.78 279.86 1229.94 278.06 1225.36 278.06C1221.56 278.06 1218.6 279.44 1216.61 282.2C1214.62 284.96 1213.59 288.5 1213.59 292.76C1213.59 297.02 1214.62 300.56 1216.61 303.32C1218.6 306.08 1221.56 307.46 1225.36 307.46C1227.71 307.46 1229.7 306.86 1231.27 305.72C1232.84 304.52 1233.8 302.9 1234.29 300.8H1234.35Z" fill="white" fill-opacity="0.6"/>
<path d="M1256.13 276.26C1259.93 272 1265.24 269.84 1272.12 269.84C1279 269.84 1284.31 272 1288.11 276.26C1291.91 280.52 1293.84 286.04 1293.84 292.76C1293.84 299.48 1291.91 305 1288.11 309.26C1284.31 313.52 1279 315.68 1272.12 315.68C1265.24 315.68 1259.93 313.52 1256.13 309.26C1252.33 305 1250.4 299.48 1250.4 292.76C1250.4 286.04 1252.33 280.52 1256.13 276.26ZM1272.12 307.52C1276.1 307.52 1279.12 306.14 1281.17 303.44C1283.22 300.74 1284.25 297.2 1284.25 292.82C1284.25 288.44 1283.22 284.96 1281.17 282.2C1279.12 279.5 1276.1 278.12 1272.12 278.12C1268.14 278.12 1265.18 279.5 1263.07 282.26C1260.96 285.02 1259.93 288.56 1259.93 292.82C1259.93 297.08 1260.96 300.62 1263.07 303.38C1265.12 306.14 1268.14 307.52 1272.12 307.52Z" fill="white" fill-opacity="0.6"/>
<path d="M1302.47 314.96V270.68H1316.77L1324.07 288.56H1325.7L1332.94 270.68H1347.31V314.96H1338.62V281.96H1336.99L1329.5 299.84H1320.21L1312.79 281.96H1311.16V314.96H1302.47Z" fill="white" fill-opacity="0.6"/>
<path d="M1357.93 270.68H1378.26C1383.39 270.68 1387.31 271.94 1390.15 274.4C1392.98 276.86 1394.37 280.34 1394.37 284.78C1394.37 289.22 1392.98 292.82 1390.15 295.34C1387.37 297.86 1383.39 299.12 1378.26 299.12H1367.22V315.02H1357.93V270.74V270.68ZM1367.22 290.96H1376.93C1379.71 290.96 1381.7 290.48 1382.97 289.46C1384.23 288.44 1384.84 286.94 1384.84 284.9C1384.84 282.86 1384.23 281.36 1382.97 280.34C1381.7 279.32 1379.71 278.84 1376.93 278.84H1367.22V291.02V290.96Z" fill="white" fill-opacity="0.6"/>
<path d="M1428.46 314.96L1424.84 303.02H1407.89L1404.27 314.96H1395.1L1409.28 270.68H1423.7L1437.94 314.96H1428.52H1428.46ZM1414.89 279.56L1410.24 294.92H1422.31L1417.66 279.56H1414.89Z" fill="white" fill-opacity="0.6"/>
<path d="M1474.5 270.68H1483.01V314.96H1471L1454.65 284.96H1453.02V314.96H1444.51V270.68H1456.58L1472.93 300.68H1474.56V270.68H1474.5Z" fill="white" fill-opacity="0.6"/>
<path d="M1508.78 288.32H1510.53L1520.06 270.62H1529.9L1514.33 299.12V314.9H1504.98V299.12L1489.47 270.62H1499.24L1508.78 288.32Z" fill="white" fill-opacity="0.6"/>
<path d="M1111.67 257.06H1057.31V311.12H1111.67V257.06Z" fill="white" fill-opacity="0.6"/>
<path d="M1057.37 203H1003V257.06H1057.37V203Z" fill="white" fill-opacity="0.6"/>
<path d="M1166.04 203H1111.67V257.06H1166.04V203Z" fill="white" fill-opacity="0.6"/>
<g clip-path="url(#clip1_211_90)">
<path d="M921.1 132.6L874.7 71.4L874.5 71.2H867.2V149.2H876.1V87.8L922.3 149L922.4 149.2H930V71.2H921.1V132.6ZM784.6 71.2H793.7V149.2H784.6V71.2ZM702.1 104.1H665V71.2H655.9V149.2H665V113.3H702.1V149.2H711.2V71.2H702.1V104.1ZM535.1 80.4H554.4V149.2H563.6V80.4H582.5V71.2H535.1V80.4ZM1061.1 71.2H1049L1012.5 107.9V71.2H1003.4V149.2H1012.5V110.6L1048.4 149.1L1048.5 149.2H1061.3L1023.2 109.1L1061.1 71.2ZM1447.6 112.1C1449.5 110.7 1451.2 109.1 1452.5 107.2C1453.8 105.3 1454.9 103.2 1455.7 101C1456.5 98.7 1456.9 96.3 1456.9 93.9C1456.9 90.8 1456.3 87.8 1455.1 85.1C1453.9 82.4 1452.3 80 1450.3 78C1448.3 76 1445.9 74.4 1443.2 73.2C1440.5 72 1437.5 71.4 1434.5 71.4H1405.3V149.4H1414.4V116.5H1431.8L1449.8 149.4H1460.1L1442.1 115.3C1444 114.4 1445.9 113.4 1447.6 112.1ZM1447.8 93.8C1447.8 95.6 1447.4 97.4 1446.7 99C1446 100.6 1445 102 1443.8 103.2C1442.6 104.4 1441.2 105.4 1439.6 106.1C1438 106.8 1436.2 107.2 1434.4 107.2H1414.3V80.4H1434.4C1436.2 80.4 1438 80.8 1439.6 81.5C1441.2 82.2 1442.7 83.2 1443.9 84.4C1445.1 85.6 1446.1 87 1446.8 88.6C1447.4 90.3 1447.8 92 1447.8 93.8ZM1533.1 71.2V80.4H1552.4V149.2H1561.6V80.4H1580.5V71.2H1533.1ZM1322.7 82.3C1319.7 78.7 1315.8 75.7 1311.3 73.5C1306.7 71.3 1301.4 70.2 1295.4 70.2C1289.4 70.2 1284.1 71.3 1279.6 73.5C1275.1 75.7 1271.3 78.6 1268.3 82.3C1265.3 85.9 1263 90.2 1261.4 94.9C1259.9 99.6 1259.1 104.6 1259.1 109.8C1259.1 115 1259.9 120 1261.4 124.8C1262.9 129.6 1265.2 133.9 1268.3 137.6C1271.3 141.3 1275.1 144.3 1279.6 146.5C1284.1 148.7 1289.4 149.9 1295.4 149.9C1301.4 149.9 1306.7 148.8 1311.3 146.5C1315.9 144.3 1319.7 141.3 1322.7 137.6C1325.7 133.9 1328 129.6 1329.6 124.8C1331.1 120 1331.9 115 1331.9 109.8C1331.9 104.6 1331.1 99.6 1329.6 94.9C1328 90.2 1325.7 85.9 1322.7 82.3ZM1322.6 109.9C1322.6 114.1 1322 118.1 1320.9 121.8C1319.8 125.5 1318 128.8 1315.8 131.6C1313.5 134.4 1310.7 136.6 1307.3 138.2C1303.9 139.8 1299.9 140.6 1295.4 140.6C1291 140.6 1287 139.8 1283.7 138.1C1280.4 136.5 1277.5 134.2 1275.3 131.4C1273 128.6 1271.3 125.3 1270.2 121.6C1269 117.9 1268.5 113.9 1268.5 109.8C1268.5 105.7 1269.1 101.7 1270.2 98C1271.3 94.3 1273.1 91 1275.3 88.3C1277.6 85.5 1280.4 83.3 1283.7 81.7C1287 80.1 1291 79.3 1295.4 79.3C1299.9 79.3 1303.9 80.1 1307.3 81.8C1310.7 83.4 1313.5 85.7 1315.8 88.4C1318.1 91.2 1319.8 94.4 1320.9 98.1C1322 101.8 1322.6 105.8 1322.6 109.9ZM1179.1 77.9C1177.1 75.9 1174.7 74.3 1172 73.1C1169.3 71.9 1166.3 71.3 1163.3 71.3H1134V149.3H1143.1V116.4H1163.2C1166.3 116.4 1169.2 115.8 1171.9 114.7C1174.6 113.6 1177 111.9 1179 109.9C1181 107.9 1182.6 105.5 1183.8 102.8C1185 100.1 1185.6 97.1 1185.6 94C1185.6 90.9 1185 87.9 1183.8 85.2C1182.7 82.3 1181.1 79.9 1179.1 77.9ZM1176.6 93.8C1176.6 95.6 1176.2 97.4 1175.5 99C1174.8 100.6 1173.8 102 1172.6 103.2C1171.4 104.4 1170 105.4 1168.4 106.1C1166.8 106.8 1165 107.2 1163.2 107.2H1143.1V80.4H1163.2C1165 80.4 1166.8 80.8 1168.4 81.5C1170 82.2 1171.5 83.2 1172.7 84.4C1173.9 85.6 1174.9 87 1175.6 88.6C1176.2 90.3 1176.6 92 1176.6 93.8Z" fill="white" fill-opacity="0.8"/>
</g>
<g clip-path="url(#clip2_211_90)">
<path d="M291.818 346.021C279.224 344.606 267.865 343.227 256.251 340.652C255.089 340.398 253.892 340.144 252.73 339.854C242.895 337.677 233.604 335.61 224.385 335.283C222.752 335.211 221.119 335.211 219.486 335.211C205.186 335.211 189.907 337.351 171.433 341.922C170.054 342.284 168.893 342.357 167.84 342.466C167.296 342.502 166.643 342.575 165.626 342.683L163.412 335.719C148.968 339.89 133.87 343.554 116.667 343.808L107.593 343.953L101.424 325.163L109.481 320.012C110.932 319.069 113.255 317.618 116.05 315.84L116.304 315.695C121.203 312.503 125.849 309.492 130.857 306.663C136.664 303.144 140.62 300.787 143.415 299.263L145.484 271.912C134.705 267.995 124.433 262.771 114.888 256.242C102.73 247.971 92.0236 237.851 83.0228 226.17C73.9495 214.381 66.8723 201.286 62.0453 187.248C57.0368 172.738 54.4963 157.539 54.4963 142.086V131.422L159.965 116.005L160.908 104.688L1 76.5388L7.93202 37.2174L84.1842 50.6389C95.9796 36.1655 110.715 24.1224 127.192 15.4891C146.645 5.3686 168.566 0 190.632 0C214.768 0 238.503 6.348 259.299 18.4273C279.442 30.1077 296.427 46.8301 308.404 66.8535L316.897 81.0368L228.994 103.527L229.72 115.425L395 144.444L388.068 183.766L326.914 172.992C322.087 194.104 312.324 213.837 298.278 230.632C283.761 248.007 265.324 261.465 244.564 269.953L245.98 289.723C249.645 291.718 252.113 294.366 253.529 295.889L253.565 295.926C255.561 298.066 258.537 300.279 265.469 300.279C265.723 300.279 266.014 300.279 266.268 300.279C266.268 300.279 266.558 300.279 266.667 300.279C269.897 300.279 272.873 301.149 274.361 301.693C281.583 304.233 283.943 308.876 284.632 312.394C285.031 314.389 285.83 318.017 296.064 319.649L312.723 322.261L305.174 337.351C305.065 337.569 304.993 337.786 304.884 337.968C304.702 338.367 304.485 338.838 304.23 339.346L300.383 347.036L291.818 346.021Z" fill="white" fill-opacity="0.6"/>
<path d="M226.999 127.831L226.962 127.976Z" fill="#00BCD4"/>
<path d="M168.711 80.9642H176.66C196.331 49.1517 213.642 80.9642 213.642 80.9642H220.683V93.3338L297.807 73.6006C275.994 37.1449 236.144 12.7686 190.632 12.7686C149.004 12.7686 112.13 33.1547 89.4105 64.532L17.949 51.9448L15.2996 66.9624L168.711 93.9505V80.9642Z" fill="#FF5722"/>
<path d="M227.288 127.939V143.356H223.115L231.571 262.009C276.72 247.209 310.582 207.489 316.933 159.135L378.051 169.909L380.7 154.891L227.288 127.939Z" fill="#00BCD4"/>
<path d="M158.549 263.569L167.659 142.739H163.412V128.411L66.8359 142.522C66.8359 200.162 105.597 248.733 158.477 263.569H158.549Z" fill="#00BCD4"/>
<path d="M272.51 315.151C272.329 314.172 268.591 312.975 266.558 313.011C257.34 313.229 250.081 310.762 244.492 304.74C241.915 301.984 239.048 299.299 234.293 299.952L223.115 143.356H227.289V127.939H218.107L215.965 93.3338H220.683V80.9642H213.643C213.643 80.9642 196.331 49.1517 176.66 80.9642H168.711V93.9504H174.264L171.361 128.411H163.413V142.739H167.659L155.21 307.534C153.94 308.15 152.779 308.731 151.726 309.311H151.69C148.932 310.617 143.27 313.99 137.136 317.727C132.273 320.483 127.591 323.53 122.728 326.686C119.933 328.464 117.61 329.915 116.159 330.858L116.522 331.91C144.649 331.511 167.659 320.81 192.592 315.151C183.628 320.121 174.7 325.054 164.32 330.822C166.969 330.531 167.731 330.568 168.421 330.386C186.822 325.816 205.731 322.696 224.821 323.385C236.398 323.784 247.686 326.541 258.937 329.008C270.296 331.511 281.656 332.853 293.234 334.159C293.56 333.506 293.851 332.817 294.177 332.164C281.874 330.278 274.47 324.909 272.51 315.151ZM181.632 94.3132H197.819V128.23H179.309L181.632 94.3132ZM196.548 270.171C195.895 280.11 195.641 288.707 195.75 295.998C182.067 297.812 171.143 300.968 162.904 304.16L174.264 143.646H197.782C199.343 151.155 199.996 156.451 199.706 159.607C198.69 171.07 195.423 176.438 195.423 185.507C195.423 197.876 202.791 205.131 202.791 220.62C202.791 236.109 198.218 244.67 196.548 270.171Z" fill="#0B2649"/>
</g>
</g>
<defs>
<clipPath id="clip0_211_90">
<rect width="1580" height="347" fill="white"/>
</clipPath>
<clipPath id="clip1_211_90">
<rect width="1479" height="280" fill="white" transform="translate(101 -30)"/>
</clipPath>
<clipPath id="clip2_211_90">
<rect width="394" height="347" fill="white" transform="translate(1)"/>
</clipPath>
</defs>
</svg>
