<svg width="400" height="400" viewBox="0 0 400 400" xmlns="http://www.w3.org/2000/svg">
  <!-- Oberer Halbkreis (orange) als Dreiecks-Mosaik -->
  <g>
    <polygon points="200,60 220,65 200,200" fill="#ea592d"/>
    <polygon points="200,60 240,75 200,200" fill="#ea592d"/>
    <polygon points="200,60 260,90 200,200" fill="#ea592d"/>
    <polygon points="200,60 280,110 200,200" fill="#ea592d"/>
    <polygon points="200,60 300,135 200,200" fill="#ea592d"/>
    <polygon points="200,60 315,165 200,200" fill="#ea592d"/>
    <polygon points="200,60 320,200 200,200" fill="#ea592d"/>
    <polygon points="200,60 315,235 200,200" fill="#ea592d"/>
    <polygon points="200,60 300,265 200,200" fill="#ea592d"/>
    <polygon points="200,60 280,290 200,200" fill="#ea592d"/>
    <polygon points="200,60 260,310 200,200" fill="#ea592d"/>
    <polygon points="200,60 240,325 200,200" fill="#ea592d"/>
    <polygon points="200,60 220,335 200,200" fill="#ea592d"/>
    <polygon points="200,60 200,340 200,200" fill="#ea592d"/>
    <polygon points="200,60 180,335 200,200" fill="#ea592d"/>
    <polygon points="200,60 160,325 200,200" fill="#ea592d"/>
    <polygon points="200,60 140,310 200,200" fill="#ea592d"/>
    <polygon points="200,60 120,290 200,200" fill="#ea592d"/>
    <polygon points="200,60 100,265 200,200" fill="#ea592d"/>
    <polygon points="200,60 85,235 200,200" fill="#ea592d"/>
    <polygon points="200,60 80,200 200,200" fill="#ea592d"/>
    <polygon points="200,60 85,165 200,200" fill="#ea592d"/>
    <polygon points="200,60 100,135 200,200" fill="#ea592d"/>
    <polygon points="200,60 120,110 200,200" fill="#ea592d"/>
    <polygon points="200,60 140,90 200,200" fill="#ea592d"/>
    <polygon points="200,60 160,75 200,200" fill="#ea592d"/>
    <polygon points="200,60 180,65 200,200" fill="#ea592d"/>
  </g>
  <!-- Unterer Halbkreis (türkis) als Dreiecks-Mosaik -->
  <g>
    <polygon points="200,200 220,205 200,340" fill="#1eb8d1"/>
    <polygon points="200,200 240,215 200,340" fill="#1eb8d1"/>
    <polygon points="200,200 260,230 200,340" fill="#1eb8d1"/>
    <polygon points="200,200 280,250 200,340" fill="#1eb8d1"/>
    <polygon points="200,200 300,275 200,340" fill="#1eb8d1"/>
    <polygon points="200,200 315,305 200,340" fill="#1eb8d1"/>
    <polygon points="200,200 320,340 200,340" fill="#1eb8d1"/>
    <polygon points="200,200 315,375 200,340" fill="#1eb8d1"/>
    <polygon points="200,200 300,405 200,340" fill="#1eb8d1"/>
    <polygon points="200,200 280,430 200,340" fill="#1eb8d1"/>
    <polygon points="200,200 260,450 200,340" fill="#1eb8d1"/>
    <polygon points="200,200 240,465 200,340" fill="#1eb8d1"/>
    <polygon points="200,200 220,475 200,340" fill="#1eb8d1"/>
    <polygon points="200,200 200,480 200,340" fill="#1eb8d1"/>
    <polygon points="200,200 180,475 200,340" fill="#1eb8d1"/>
    <polygon points="200,200 160,465 200,340" fill="#1eb8d1"/>
    <polygon points="200,200 140,450 200,340" fill="#1eb8d1"/>
    <polygon points="200,200 120,430 200,340" fill="#1eb8d1"/>
    <polygon points="200,200 100,405 200,340" fill="#1eb8d1"/>
    <polygon points="200,200 85,375 200,340" fill="#1eb8d1"/>
    <polygon points="200,200 80,340 200,340" fill="#1eb8d1"/>
    <polygon points="200,200 85,305 200,340" fill="#1eb8d1"/>
    <polygon points="200,200 100,275 200,340" fill="#1eb8d1"/>
    <polygon points="200,200 120,250 200,340" fill="#1eb8d1"/>
    <polygon points="200,200 140,230 200,340" fill="#1eb8d1"/>
    <polygon points="200,200 160,215 200,340" fill="#1eb8d1"/>
    <polygon points="200,200 180,205 200,340" fill="#1eb8d1"/>
  </g>
  <!-- Lichtstrahlen (links und rechts, als Dreiecke) -->
  <polygon points="200,120 60,90 200,140" fill="#ea592d"/>
  <polygon points="200,120 340,170 200,140" fill="#1eb8d1"/>
  <!-- Leuchtturm Low-Poly (nur Dreiecke, dunkelblau) -->
  <g>
    <polygon points="185,320 192,140 200,120 200,320" fill="#1a2846"/>
    <polygon points="192,140 194,130 200,120" fill="#1a2846"/>
    <polygon points="185,320 180,340 200,340" fill="#1a2846"/>
    <polygon points="200,320 200,120 208,140 215,320" fill="#1a2846"/>
    <polygon points="208,140 206,130 200,120" fill="#1a2846"/>
    <polygon points="200,320 215,320 220,340 200,340" fill="#1a2846"/>
    <polygon points="197,320 200,160 203,320" fill="#1a2846"/>
    <polygon points="192,120 200,100 208,120" fill="#1a2846"/>
    <polygon points="194,115 200,105 206,115" fill="#1a2846"/>
    <polygon points="188,130 212,130 208,140 192,140" fill="#1a2846"/>
    <polygon points="190,135 210,135 208,138 192,138" fill="#1a2846"/>
    <polygon points="140,340 185,320 200,340" fill="#1a2846"/>
    <polygon points="200,340 215,320 260,340" fill="#1a2846"/>
    <polygon points="120,350 140,340 200,350" fill="#1a2846"/>
    <polygon points="200,350 260,340 280,355" fill="#1a2846"/>
    <polygon points="160,345 200,340 200,350" fill="#1a2846"/>
    <polygon points="200,350 200,340 240,345" fill="#1a2846"/>
    <polygon points="180,348 200,350 200,355" fill="#1a2846"/>
    <polygon points="200,355 200,350 220,348" fill="#1a2846"/>
  </g>
</svg>
